ffmpeg started on 2025-06-06 at 19:17:40
Report written to "D:\Convert\FFMetrics\reports\ssim_report-6.txt"
Log level: 32
Command line:
ffmpeg -hide_banner -nostdin -i "G:\\\xc0\xed\xe8\xec\xe5\\\xce\xed\xe3\xee\xe8\xed\xe3\xe8\\!_36_\xce\xf1\xe5\xed\xfc_2024\\DreamCast\\\xd0\xee\xed \xca\xe0\xec\xee\xed\xee\xf5\xe0\xf1\xe8 - \xcd\xe5\xe2\xec\xe5\xed\xff\xe5\xec\xfb\xe9 \xe4\xe5\xf2\xe5\xea\xf2\xe8\xe2\\\xd2\xc2-1\\[DC] Kamonohashi Ron no Kindan Suiri - 05_Telegram_HEVC.mkv" -i "G:\\\xc0\xed\xe8\xec\xe5\\\xce\xed\xe3\xee\xe8\xed\xe3\xe8\\!_36_\xce\xf1\xe5\xed\xfc_2024\\DreamCast\\\xd0\xee\xed \xca\xe0\xec\xee\xed\xee\xf5\xe0\xf1\xe8 - \xcd\xe5\xe2\xec\xe5\xed\xff\xe5\xec\xfb\xe9 \xe4\xe5\xf2\xe5\xea\xf2\xe8\xe2\\\xd2\xc2-1\\[DC] Kamonohashi Ron no Kindan Suiri - 05_Telegram.mp4" -lavfi "[0:v]settb=AVTB,setpts=PTS-STARTPTS,format=pix_fmts=yuv420p10,fps=24000/1001,scale=1920:1080:flags=bicubic[main];[1:v]settb=AVTB,setpts=PTS-STARTPTS,format=pix_fmts=yuv420p,fps=24000/1001,scale=1920:1080:flags=bicubic[ref];[main][ref]ssim=eof_action=endall:stats_file='D\\:/Convert/FFMetrics/logs/ssim_logfile-6.txt'" -f null -
Input #0, matroska,webm, from 'G:\Аниме\Онгоинги\!_36_Осень_2024\DreamCast\Рон Камонохаси - Невменяемый детектив\ТВ-1\[DC] Kamonohashi Ron no Kindan Suiri - 05_Telegram_HEVC.mkv':
  Metadata:
    COMPATIBLE_BRANDS: isomiso2avc1mp41
    MAJOR_BRAND     : isom
    MINOR_VERSION   : 512
    ENCODER         : Lavf61.7.100
  Duration: 00:23:46.73, start: -0.021000, bitrate: 755 kb/s
  Stream #0:0: Video: hevc (Main 10), yuv420p10le(tv, bt709, progressive), 1920x1080 [SAR 1:1 DAR 16:9], 23.98 fps, 23.98 tbr, 1k tbn (default)
      Metadata:
        HANDLER_NAME    : VideoHandler
        VENDOR_ID       : [0][0][0][0]
        ENCODER         : Lavc61.19.100 libx265
        BPS             : 557919
        DURATION        : 00:23:46.549708333
        NUMBER_OF_FRAMES: 34203
        NUMBER_OF_BYTES : 99487400
        _STATISTICS_WRITING_APP: mkvpropedit v66.0.0 ('Josie') 64-bit
        _STATISTICS_WRITING_DATE_UTC: 2025-06-03 14:49:33
        _STATISTICS_TAGS: BPS DURATION NUMBER_OF_FRAMES NUMBER_OF_BYTES
  Stream #0:1: Audio: aac (LC), 48000 Hz, stereo, fltp (default)
      Metadata:
        HANDLER_NAME    : SoundHandler
        VENDOR_ID       : [0][0][0][0]
        ENCODER         : Lavc61.19.100 aac
        BPS             : 193326
        DURATION        : 00:23:46.730000000
        NUMBER_OF_FRAMES: 66879
        NUMBER_OF_BYTES : 34478178
        _STATISTICS_WRITING_APP: mkvpropedit v66.0.0 ('Josie') 64-bit
        _STATISTICS_WRITING_DATE_UTC: 2025-06-03 14:49:33
        _STATISTICS_TAGS: BPS DURATION NUMBER_OF_FRAMES NUMBER_OF_BYTES
Input #1, mov,mp4,m4a,3gp,3g2,mj2, from 'G:\Аниме\Онгоинги\!_36_Осень_2024\DreamCast\Рон Камонохаси - Невменяемый детектив\ТВ-1\[DC] Kamonohashi Ron no Kindan Suiri - 05_Telegram.mp4':
  Metadata:
    major_brand     : isom
    minor_version   : 512
    compatible_brands: isomiso2avc1mp41
    encoder         : Lavf60.15.101
  Duration: 00:23:46.68, start: 0.000000, bitrate: 3376 kb/s
  Stream #1:0[0x1](und): Video: h264 (High) (avc1 / 0x31637661), yuv420p(tv, bt709, progressive), 1920x1080 [SAR 1:1 DAR 16:9], 3229 kb/s, 23.98 fps, 23.98 tbr, 24k tbn (default)
      Metadata:
        handler_name    : VideoHandler
        vendor_id       : [0][0][0][0]
        encoder         : Lavc60.30.102 h264_qsv
  Stream #1:1[0x2](und): Audio: aac (HE-AACv2) (mp4a / 0x6134706D), 48000 Hz, stereo, fltp, 144 kb/s (default)
      Metadata:
        handler_name    : SoundHandler
        vendor_id       : [0][0][0][0]
Stream mapping:
  Stream #0:0 (hevc) -> settb:default
  Stream #1:0 (h264) -> settb:default
  ssim:default -> Stream #0:0 (wrapped_avframe)
  Stream #0:1 -> #0:1 (aac (native) -> pcm_s16le (native))
Output #0, null, to 'pipe:':
  Metadata:
    COMPATIBLE_BRANDS: isomiso2avc1mp41
    MAJOR_BRAND     : isom
    MINOR_VERSION   : 512
    encoder         : Lavf61.7.100
  Stream #0:0: Video: wrapped_avframe, yuv420p10le(tv, bt709, progressive), 1920x1080 [SAR 1:1 DAR 16:9], q=2-31, 200 kb/s, 23.98 fps, 23.98 tbn
      Metadata:
        encoder         : Lavc61.19.100 wrapped_avframe
  Stream #0:1: Audio: pcm_s16le, 48000 Hz, stereo, s16, 1536 kb/s (default)
      Metadata:
        HANDLER_NAME    : SoundHandler
        VENDOR_ID       : [0][0][0][0]
        _STATISTICS_TAGS: BPS DURATION NUMBER_OF_FRAMES NUMBER_OF_BYTES
        BPS             : 193326
        DURATION        : 00:23:46.730000000
        NUMBER_OF_FRAMES: 66879
        NUMBER_OF_BYTES : 34478178
        _STATISTICS_WRITING_APP: mkvpropedit v66.0.0 ('Josie') 64-bit
        _STATISTICS_WRITING_DATE_UTC: 2025-06-03 14:49:33
        encoder         : Lavc61.19.100 pcm_s16le
frame=  178 fps=0.0 q=-0.0 size=N/A time=00:00:07.42 bitrate=N/A speed=14.7x    frame=  452 fps=441 q=-0.0 size=N/A time=00:00:18.85 bitrate=N/A speed=18.4x    frame=  742 fps=482 q=-0.0 size=N/A time=00:00:30.94 bitrate=N/A speed=20.1x    frame=  973 fps=473 q=-0.0 size=N/A time=00:00:40.58 bitrate=N/A speed=19.7x    frame= 1254 fps=488 q=-0.0 size=N/A time=00:00:52.30 bitrate=N/A speed=20.3x    frame= 1489 fps=483 q=-0.0 size=N/A time=00:01:02.10 bitrate=N/A speed=20.1x    frame= 1712 fps=476 q=-0.0 size=N/A time=00:01:11.40 bitrate=N/A speed=19.8x    frame= 1931 fps=469 q=-0.0 size=N/A time=00:01:20.53 bitrate=N/A speed=19.5x    frame= 2194 fps=474 q=-0.0 size=N/A time=00:01:31.50 bitrate=N/A speed=19.8x    frame= 2492 fps=484 q=-0.0 size=N/A time=00:01:43.93 bitrate=N/A speed=20.2x    frame= 2748 fps=485 q=-0.0 size=N/A time=00:01:54.61 bitrate=N/A speed=20.2x    frame= 3033 fps=490 q=-0.0 size=N/A time=00:02:06.50 bitrate=N/A speed=20.5x    frame= 3284 fps=490 q=-0.0 size=N/A time=00:02:16.97 bitrate=N/A speed=20.4x    frame= 3530 fps=489 q=-0.0 size=N/A time=00:02:27.23 bitrate=N/A speed=20.4x    frame= 3763 fps=487 q=-0.0 size=N/A time=00:02:36.94 bitrate=N/A speed=20.3x    frame= 3999 fps=485 q=-0.0 size=N/A time=00:02:46.79 bitrate=N/A speed=20.2x    frame= 4229 fps=483 q=-0.0 size=N/A time=00:02:56.38 bitrate=N/A speed=20.1x    frame= 4483 fps=483 q=-0.0 size=N/A time=00:03:06.97 bitrate=N/A speed=20.2x    frame= 4690 fps=479 q=-0.0 size=N/A time=00:03:15.61 bitrate=N/A speed=  20x    frame= 4919 fps=477 q=-0.0 size=N/A time=00:03:25.16 bitrate=N/A speed=19.9x    frame= 5192 fps=480 q=-0.0 size=N/A time=00:03:36.54 bitrate=N/A speed=  20x    frame= 5445 fps=480 q=-0.0 size=N/A time=00:03:47.10 bitrate=N/A speed=  20x    frame= 5699 fps=481 q=-0.0 size=N/A time=00:03:57.69 bitrate=N/A speed=20.1x    frame= 5973 fps=483 q=-0.0 size=N/A time=00:04:09.12 bitrate=N/A speed=20.1x    frame= 6232 fps=484 q=-0.0 size=N/A time=00:04:19.92 bitrate=N/A speed=20.2x    frame= 6492 fps=484 q=-0.0 size=N/A time=00:04:30.77 bitrate=N/A speed=20.2x    frame= 6785 fps=488 q=-0.0 size=N/A time=00:04:42.99 bitrate=N/A speed=20.3x    frame= 7066 fps=490 q=-0.0 size=N/A time=00:04:54.71 bitrate=N/A speed=20.4x    frame= 7324 fps=490 q=-0.0 size=N/A time=00:05:05.47 bitrate=N/A speed=20.4x    frame= 7592 fps=491 q=-0.0 size=N/A time=00:05:16.64 bitrate=N/A speed=20.5x    frame= 7849 fps=491 q=-0.0 size=N/A time=00:05:27.36 bitrate=N/A speed=20.5x    frame= 8104 fps=491 q=-0.0 size=N/A time=00:05:38.00 bitrate=N/A speed=20.5x    frame= 8363 fps=492 q=-0.0 size=N/A time=00:05:48.80 bitrate=N/A speed=20.5x    frame= 8626 fps=492 q=-0.0 size=N/A time=00:05:59.77 bitrate=N/A speed=20.5x    frame= 8860 fps=491 q=-0.0 size=N/A time=00:06:09.53 bitrate=N/A speed=20.5x    frame= 9150 fps=493 q=-0.0 size=N/A time=00:06:21.63 bitrate=N/A speed=20.6x    frame= 9394 fps=492 q=-0.0 size=N/A time=00:06:31.80 bitrate=N/A speed=20.5x    frame= 9627 fps=492 q=-0.0 size=N/A time=00:06:41.52 bitrate=N/A speed=20.5x    frame= 9901 fps=493 q=-0.0 size=N/A time=00:06:52.99 bitrate=N/A speed=20.6x    frame=10193 fps=494 q=-0.0 size=N/A time=00:07:05.13 bitrate=N/A speed=20.6x    frame=10369 fps=491 q=-0.0 size=N/A time=00:07:12.47 bitrate=N/A speed=20.5x    frame=10634 fps=491 q=-0.0 size=N/A time=00:07:23.52 bitrate=N/A speed=20.5x    frame=10900 fps=492 q=-0.0 size=N/A time=00:07:34.62 bitrate=N/A speed=20.5x    frame=11166 fps=492 q=-0.0 size=N/A time=00:07:45.71 bitrate=N/A speed=20.5x    frame=11451 fps=493 q=-0.0 size=N/A time=00:07:57.60 bitrate=N/A speed=20.6x    frame=11715 fps=494 q=-0.0 size=N/A time=00:08:08.61 bitrate=N/A speed=20.6x    frame=11961 fps=493 q=-0.0 size=N/A time=00:08:18.87 bitrate=N/A speed=20.6x    frame=12235 fps=494 q=-0.0 size=N/A time=00:08:30.30 bitrate=N/A speed=20.6x    frame=12493 fps=494 q=-0.0 size=N/A time=00:08:41.06 bitrate=N/A speed=20.6x    frame=12766 fps=495 q=-0.0 size=N/A time=00:08:52.44 bitrate=N/A speed=20.6x    frame=12998 fps=494 q=-0.0 size=N/A time=00:09:02.12 bitrate=N/A speed=20.6x    frame=13238 fps=493 q=-0.0 size=N/A time=00:09:12.13 bitrate=N/A speed=20.6x    frame=13457 fps=492 q=-0.0 size=N/A time=00:09:21.26 bitrate=N/A speed=20.5x    frame=13710 fps=492 q=-0.0 size=N/A time=00:09:31.82 bitrate=N/A speed=20.5x    frame=13994 fps=493 q=-0.0 size=N/A time=00:09:43.66 bitrate=N/A speed=20.6x    frame=14287 fps=495 q=-0.0 size=N/A time=00:09:55.88 bitrate=N/A speed=20.6x    frame=14541 fps=495 q=-0.0 size=N/A time=00:10:06.48 bitrate=N/A speed=20.6x    frame=14780 fps=494 q=-0.0 size=N/A time=00:10:16.44 bitrate=N/A speed=20.6x    frame=15065 fps=495 q=-0.0 size=N/A time=00:10:28.33 bitrate=N/A speed=20.6x    frame=15330 fps=496 q=-0.0 size=N/A time=00:10:39.38 bitrate=N/A speed=20.7x    frame=15614 fps=496 q=-0.0 size=N/A time=00:10:51.23 bitrate=N/A speed=20.7x    frame=15914 fps=498 q=-0.0 size=N/A time=00:11:03.74 bitrate=N/A speed=20.8x    frame=16186 fps=498 q=-0.0 size=N/A time=00:11:15.09 bitrate=N/A speed=20.8x    frame=16432 fps=498 q=-0.0 size=N/A time=00:11:25.35 bitrate=N/A speed=20.8x    frame=16670 fps=497 q=-0.0 size=N/A time=00:11:35.27 bitrate=N/A speed=20.7x    frame=16904 fps=497 q=-0.0 size=N/A time=00:11:45.03 bitrate=N/A speed=20.7x    frame=17177 fps=497 q=-0.0 size=N/A time=00:11:56.42 bitrate=N/A speed=20.7x    frame=17436 fps=497 q=-0.0 size=N/A time=00:12:07.22 bitrate=N/A speed=20.7x    frame=17714 fps=498 q=-0.0 size=N/A time=00:12:18.82 bitrate=N/A speed=20.8x    frame=18006 fps=499 q=-0.0 size=N/A time=00:12:31.00 bitrate=N/A speed=20.8x    frame=18303 fps=500 q=-0.0 size=N/A time=00:12:43.38 bitrate=N/A speed=20.8x    frame=18543 fps=499 q=-0.0 size=N/A time=00:12:53.39 bitrate=N/A speed=20.8x    frame=18781 fps=499 q=-0.0 size=N/A time=00:13:03.32 bitrate=N/A speed=20.8x    frame=19065 fps=500 q=-0.0 size=N/A time=00:13:15.16 bitrate=N/A speed=20.8x    frame=19350 fps=500 q=-0.0 size=N/A time=00:13:27.05 bitrate=N/A speed=20.9x    frame=19637 fps=501 q=-0.0 size=N/A time=00:13:39.02 bitrate=N/A speed=20.9x    frame=19906 fps=501 q=-0.0 size=N/A time=00:13:50.24 bitrate=N/A speed=20.9x    frame=20151 fps=501 q=-0.0 size=N/A time=00:14:00.46 bitrate=N/A speed=20.9x    frame=20403 fps=501 q=-0.0 size=N/A time=00:14:10.97 bitrate=N/A speed=20.9x    frame=20665 fps=501 q=-0.0 size=N/A time=00:14:21.90 bitrate=N/A speed=20.9x    frame=20914 fps=501 q=-0.0 size=N/A time=00:14:32.28 bitrate=N/A speed=20.9x    frame=21137 fps=500 q=-0.0 size=N/A time=00:14:41.58 bitrate=N/A speed=20.8x    frame=21419 fps=500 q=-0.0 size=N/A time=00:14:53.35 bitrate=N/A speed=20.9x    frame=21671 fps=500 q=-0.0 size=N/A time=00:15:03.86 bitrate=N/A speed=20.9x    frame=21909 fps=500 q=-0.0 size=N/A time=00:15:13.78 bitrate=N/A speed=20.8x    frame=22176 fps=500 q=-0.0 size=N/A time=00:15:24.92 bitrate=N/A speed=20.9x    frame=22427 fps=500 q=-0.0 size=N/A time=00:15:35.39 bitrate=N/A speed=20.8x    frame=22676 fps=500 q=-0.0 size=N/A time=00:15:45.77 bitrate=N/A speed=20.8x    frame=22956 fps=500 q=-0.0 size=N/A time=00:15:57.45 bitrate=N/A speed=20.9x    frame=23224 fps=500 q=-0.0 size=N/A time=00:16:08.63 bitrate=N/A speed=20.9x    frame=23508 fps=501 q=-0.0 size=N/A time=00:16:20.47 bitrate=N/A speed=20.9x    frame=23784 fps=501 q=-0.0 size=N/A time=00:16:31.99 bitrate=N/A speed=20.9x    frame=24070 fps=502 q=-0.0 size=N/A time=00:16:43.91 bitrate=N/A speed=20.9x    frame=24353 fps=502 q=-0.0 size=N/A time=00:16:55.72 bitrate=N/A speed=  21x    frame=24652 fps=503 q=-0.0 size=N/A time=00:17:08.19 bitrate=N/A speed=  21x    frame=24931 fps=504 q=-0.0 size=N/A time=00:17:19.83 bitrate=N/A speed=  21x    frame=25192 fps=504 q=-0.0 size=N/A time=00:17:30.71 bitrate=N/A speed=  21x    frame=25480 fps=504 q=-0.0 size=N/A time=00:17:42.72 bitrate=N/A speed=  21x    frame=25767 fps=505 q=-0.0 size=N/A time=00:17:54.69 bitrate=N/A speed=21.1x    frame=26058 fps=505 q=-0.0 size=N/A time=00:18:06.83 bitrate=N/A speed=21.1x    frame=26332 fps=505 q=-0.0 size=N/A time=00:18:18.26 bitrate=N/A speed=21.1x    frame=26602 fps=506 q=-0.0 size=N/A time=00:18:29.52 bitrate=N/A speed=21.1x    frame=26877 fps=506 q=-0.0 size=N/A time=00:18:40.99 bitrate=N/A speed=21.1x    frame=27131 fps=506 q=-0.0 size=N/A time=00:18:51.58 bitrate=N/A speed=21.1x    frame=27385 fps=506 q=-0.0 size=N/A time=00:19:02.18 bitrate=N/A speed=21.1x    frame=27671 fps=506 q=-0.0 size=N/A time=00:19:14.11 bitrate=N/A speed=21.1x    frame=27928 fps=506 q=-0.0 size=N/A time=00:19:24.83 bitrate=N/A speed=21.1x    frame=28198 fps=506 q=-0.0 size=N/A time=00:19:36.09 bitrate=N/A speed=21.1x    frame=28492 fps=507 q=-0.0 size=N/A time=00:19:48.35 bitrate=N/A speed=21.1x    frame=28744 fps=507 q=-0.0 size=N/A time=00:19:58.86 bitrate=N/A speed=21.1x    frame=29022 fps=507 q=-0.0 size=N/A time=00:20:10.45 bitrate=N/A speed=21.1x    frame=29295 fps=507 q=-0.0 size=N/A time=00:20:21.84 bitrate=N/A speed=21.2x    frame=29577 fps=508 q=-0.0 size=N/A time=00:20:33.60 bitrate=N/A speed=21.2x    frame=29842 fps=508 q=-0.0 size=N/A time=00:20:44.70 bitrate=N/A speed=21.2x    frame=30095 fps=507 q=-0.0 size=N/A time=00:20:55.21 bitrate=N/A speed=21.2x    frame=30384 fps=508 q=-0.0 size=N/A time=00:21:07.26 bitrate=N/A speed=21.2x    frame=30655 fps=508 q=-0.0 size=N/A time=00:21:18.56 bitrate=N/A speed=21.2x    frame=30914 fps=508 q=-0.0 size=N/A time=00:21:29.37 bitrate=N/A speed=21.2x    frame=31190 fps=508 q=-0.0 size=N/A time=00:21:40.88 bitrate=N/A speed=21.2x    frame=31478 fps=509 q=-0.0 size=N/A time=00:21:52.89 bitrate=N/A speed=21.2x    frame=31757 fps=509 q=-0.0 size=N/A time=00:22:04.53 bitrate=N/A speed=21.2x    frame=32036 fps=509 q=-0.0 size=N/A time=00:22:16.16 bitrate=N/A speed=21.2x    frame=32291 fps=509 q=-0.0 size=N/A time=00:22:26.80 bitrate=N/A speed=21.2x    frame=32567 fps=509 q=-0.0 size=N/A time=00:22:38.31 bitrate=N/A speed=21.2x    frame=32836 fps=509 q=-0.0 size=N/A time=00:22:49.53 bitrate=N/A speed=21.2x    frame=33135 fps=510 q=-0.0 size=N/A time=00:23:02.00 bitrate=N/A speed=21.3x    frame=33428 fps=510 q=-0.0 size=N/A time=00:23:14.22 bitrate=N/A speed=21.3x    frame=33706 fps=511 q=-0.0 size=N/A time=00:23:25.82 bitrate=N/A speed=21.3x    frame=33965 fps=511 q=-0.0 size=N/A time=00:23:36.62 bitrate=N/A speed=21.3x    [Parsed_ssim_10 @ 0000021d3d65e640] SSIM Y:0.995773 (23.739950) U:0.993724 (22.022966) V:0.994564 (22.646873) All:0.995230 (23.214869)
[out#0/null @ 0000021d3cdd5580] video:14697KiB audio:267516KiB subtitle:0KiB other streams:0KiB global headers:0KiB muxing overhead: unknown
frame=34203 fps=511 q=-0.0 Lsize=N/A time=00:23:46.55 bitrate=N/A speed=21.3x    
